<?xml version="1.0" encoding="UTF-8" standalone="no"?>
<svg
   xmlnsDc="http://purl.org/dc/elements/1.1/"
   xmlnsCc="http://creativecommons.org/ns#"
   xmlnsRdf="http://www.w3.org/1999/02/22-rdf-syntax-ns#"
   xmlnsSvg="http://www.w3.org/2000/svg"
   xmlns="http://www.w3.org/2000/svg"
   xmlnsSodipodi="http://sodipodi.sourceforge.net/DTD/sodipodi-0.dtd"
   xmlnsInkscape="http://www.inkscape.org/namespaces/inkscape"
   version="1.1"
   id="svg2"
   xmlSpace="preserve"
   width="2666.6667"
   height="2666.6667"
   viewBox="0 0 2666.6667 2666.6667"
   sodipodiDocname="vectorstock_27297365.ai"><metadata
     id="metadata8"><rdfRDF><ccWork
         rdfAbout=""><dcFormat>image/svg+xml</dcFormat><dcType
           rdfResource="http://purl.org/dc/dcmitype/StillImage" /></ccWork></rdfRDF></metadata><defs
     id="defs6"><clipPath
       clipPathUnits="userSpaceOnUse"
       id="clipPath20"><path
         d="M 0,2000 H 2000.001 V 0 H 0 Z"
         id="path18" /></clipPath></defs><sodipodiNamedview
     pagecolor="#ffffff"
     bordercolor="#666666"
     borderopacity="1"
     objecttolerance="10"
     gridtolerance="10"
     guidetolerance="10"
     inkscapePageopacity="0"
     inkscapePageshadow="2"
     inkscapeWindow-width="640"
     inkscapeWindow-height="480"
     id="namedview4" /><g
     id="g10"
     inkscapeGroupmode="layer"
     inkscapeLabel="vectorstock_27297365"
     transform="matrix(1.3333333,0,0,-1.3333333,0,2666.6667)"><g
       id="g14"><g
         id="g16"
         clip-path="url(#clipPath20)"><g
           id="g22"
           transform="translate(734.4026,687.0656)"><path
             d="m 0,0 c 23.488,92.108 78.487,212.658 152.755,295.012 -93.332,-19.363 -99.573,31.962 -99.573,31.962 33.694,14.505 59.428,21.614 79.062,24.342 -78.259,7.783 -178.989,74.041 -93.919,240.287 0,0 -50.699,-184.234 177.087,-191.544 l 63.951,-12.13 66.954,-14.977 c 0,0 124.489,10.24 87.143,113.843 0,0 82.824,-76.78 -6.322,-139.423 l 45.778,-15.26 18.472,-18.472 v -17.475 c 0,-14.23 -4.434,-28.108 -12.685,-39.704 L 461.671,232.524 C 305.933,215.935 192.926,163.941 192.926,163.941 l 105.308,14.776 C 235.892,136.423 173.841,60.781 148.672,-74.065 c 6.231,28.075 87.259,217.333 202.593,238 C 337.226,25.896 569.5,-22.131 642.317,163.75 c 0,0.001 0,0.002 10e-4,0.003 0.09,0.443 0.233,0.823 0.414,1.154 15.108,42.304 23.307,87.891 23.221,135.406 C 665.552,523.365 484.315,702.27 261.276,699.911 42.156,697.594 -134.759,519.247 -134.759,299.578 -134.759,180.376 -82.664,73.342 0,0"
             style="fill:#FAF9F6;fill-opacity:1;fill-rule:nonzero;stroke:none"
             id="path24" /></g><g
           id="g26"
           transform="translate(1040.3352,1026.0129)"><path
             d="M 0,0 -60.865,11.593 C -28.983,-44.44 0,0 0,0"
             style="fill:#FAF9F6;fill-opacity:1;fill-rule:nonzero;stroke:none"
             id="path28" /></g></g></g></g></svg>
